<svg width="45" height="42" viewBox="0 0 45 42" fill="none" xmlns="http://www.w3.org/2000/svg">
<path fill-rule="evenodd" clip-rule="evenodd" d="M31.0243 22.75C32.4305 22.75 33.668 22.0325 34.3055 20.9475L41.018 9.59C41.7118 8.435 40.8118 7 39.3868 7H11.6368L9.87429 3.5H3.74304V7H7.49304L14.243 20.2825L11.7118 24.5525C10.343 26.8975 12.143 29.75 14.993 29.75H37.493V26.25H14.993L17.0555 22.75H31.0243ZM11.2618 35C11.2618 33.075 12.9305 31.5 14.993 31.5C17.0555 31.5 18.743 33.075 18.743 35C18.743 36.925 17.0555 38.5 14.993 38.5C12.9305 38.5 11.2618 36.925 11.2618 35ZM30.0118 35C30.0118 33.075 31.6805 31.5 33.743 31.5C35.8055 31.5 37.493 33.075 37.493 35C37.493 36.925 35.8055 38.5 33.743 38.5C31.6805 38.5 30.0118 36.925 30.0118 35ZM36.1993 10.5H13.418L17.8618 19.25H31.0243L36.1993 10.5Z" fill="white" fill-opacity="0.99"/>
</svg>
