<svg width="83" height="29" viewBox="0 0 83 29" fill="none" xmlns="http://www.w3.org/2000/svg">
<path fill-rule="evenodd" clip-rule="evenodd" d="M14.3333 0C10.3737 0 7.16667 3.2149 7.16667 7.18413C7.16667 11.1534 10.3737 14.3683 14.3333 14.3683C18.2929 14.3683 21.5 11.1534 21.5 7.18413C21.5 3.2149 18.2929 0 14.3333 0ZM18.0958 7.18412C18.0958 5.10073 16.4117 3.41246 14.3333 3.41246C12.255 3.41246 10.5709 5.10073 10.5709 7.18412C10.5709 9.26752 12.255 10.9558 14.3333 10.9558C16.4117 10.9558 18.0958 9.26752 18.0958 7.18412ZM25.2625 23.3484C25.2625 22.1989 19.6546 19.5767 14.3333 19.5767C9.01209 19.5767 3.40417 22.1989 3.40417 23.3484V25.324H25.2625V23.3484ZM0 23.3484C0 18.571 9.54959 16.1643 14.3333 16.1643C19.1171 16.1643 28.6667 18.571 28.6667 23.3484V28.7365H0V23.3484Z" fill="white" fill-opacity="0.7"/>
<path d="M40.9141 20.0156C40.9141 19.5729 40.7578 19.2344 40.4453 19C40.1328 18.7604 39.5703 18.5104 38.7578 18.25C37.9453 17.9844 37.3021 17.724 36.8281 17.4688C35.5365 16.7708 34.8906 15.8307 34.8906 14.6484C34.8906 14.0339 35.0625 13.487 35.4062 13.0078C35.7552 12.5234 36.2526 12.1458 36.8984 11.875C37.5495 11.6042 38.2786 11.4688 39.0859 11.4688C39.8984 11.4688 40.6224 11.6172 41.2578 11.9141C41.8932 12.2057 42.3854 12.6198 42.7344 13.1562C43.0885 13.6927 43.2656 14.3021 43.2656 14.9844H40.9219C40.9219 14.4635 40.7578 14.0599 40.4297 13.7734C40.1016 13.4818 39.6406 13.3359 39.0469 13.3359C38.474 13.3359 38.0286 13.4583 37.7109 13.7031C37.3932 13.9427 37.2344 14.2604 37.2344 14.6562C37.2344 15.026 37.4193 15.3359 37.7891 15.5859C38.1641 15.8359 38.7135 16.0703 39.4375 16.2891C40.7708 16.6901 41.7422 17.1875 42.3516 17.7812C42.9609 18.375 43.2656 19.1146 43.2656 20C43.2656 20.9844 42.8932 21.7578 42.1484 22.3203C41.4036 22.8776 40.401 23.1562 39.1406 23.1562C38.2656 23.1562 37.4688 22.9974 36.75 22.6797C36.0312 22.3568 35.4818 21.9167 35.1016 21.3594C34.7266 20.8021 34.5391 20.1562 34.5391 19.4219H36.8906C36.8906 20.6771 37.6406 21.3047 39.1406 21.3047C39.6979 21.3047 40.1328 21.1927 40.4453 20.9688C40.7578 20.7396 40.9141 20.4219 40.9141 20.0156Z" fill="white" fill-opacity="0.7"/>
<path d="M47.0938 23H44.8281V14.5469H47.0938V23ZM44.6953 12.3594C44.6953 12.0208 44.8073 11.7422 45.0312 11.5234C45.2604 11.3047 45.5703 11.1953 45.9609 11.1953C46.3464 11.1953 46.6536 11.3047 46.8828 11.5234C47.112 11.7422 47.2266 12.0208 47.2266 12.3594C47.2266 12.7031 47.1094 12.9844 46.875 13.2031C46.6458 13.4219 46.3411 13.5312 45.9609 13.5312C45.5807 13.5312 45.2734 13.4219 45.0391 13.2031C44.8099 12.9844 44.6953 12.7031 44.6953 12.3594Z" fill="white" fill-opacity="0.7"/>
<path d="M48.6328 18.7109C48.6328 17.4141 48.9401 16.3698 49.5547 15.5781C50.1745 14.7865 51.0078 14.3906 52.0547 14.3906C52.9818 14.3906 53.7031 14.7083 54.2188 15.3438L54.3125 14.5469H56.3594V22.7188C56.3594 23.4583 56.1901 24.1016 55.8516 24.6484C55.5182 25.1953 55.0469 25.612 54.4375 25.8984C53.8281 26.1849 53.1146 26.3281 52.2969 26.3281C51.6771 26.3281 51.0729 26.2031 50.4844 25.9531C49.8958 25.7083 49.4505 25.3906 49.1484 25L50.1484 23.625C50.7109 24.2552 51.3932 24.5703 52.1953 24.5703C52.7943 24.5703 53.2604 24.4089 53.5938 24.0859C53.9271 23.7682 54.0938 23.3151 54.0938 22.7266V22.2734C53.5729 22.862 52.888 23.1562 52.0391 23.1562C51.0234 23.1562 50.2005 22.7604 49.5703 21.9688C48.9453 21.1719 48.6328 20.1172 48.6328 18.8047V18.7109ZM50.8906 18.875C50.8906 19.6406 51.0443 20.2422 51.3516 20.6797C51.6589 21.112 52.0807 21.3281 52.6172 21.3281C53.3047 21.3281 53.7969 21.0703 54.0938 20.5547V17C53.7917 16.4844 53.3047 16.2266 52.6328 16.2266C52.0911 16.2266 51.6641 16.4479 51.3516 16.8906C51.0443 17.3333 50.8906 17.9948 50.8906 18.875Z" fill="white" fill-opacity="0.7"/>
<path d="M60.1797 14.5469L60.25 15.5234C60.8542 14.7682 61.6641 14.3906 62.6797 14.3906C63.5755 14.3906 64.2422 14.6536 64.6797 15.1797C65.1172 15.7057 65.3411 16.4922 65.3516 17.5391V23H63.0938V17.5938C63.0938 17.1146 62.9896 16.7682 62.7812 16.5547C62.5729 16.3359 62.2266 16.2266 61.7422 16.2266C61.1068 16.2266 60.6302 16.4974 60.3125 17.0391V23H58.0547V14.5469H60.1797Z" fill="white" fill-opacity="0.7"/>
<path d="M73.4375 23H71.1719V14.5469H73.4375V23ZM71.0391 12.3594C71.0391 12.0208 71.151 11.7422 71.375 11.5234C71.6042 11.3047 71.9141 11.1953 72.3047 11.1953C72.6901 11.1953 72.9974 11.3047 73.2266 11.5234C73.4557 11.7422 73.5703 12.0208 73.5703 12.3594C73.5703 12.7031 73.4531 12.9844 73.2188 13.2031C72.9896 13.4219 72.6849 13.5312 72.3047 13.5312C71.9245 13.5312 71.6172 13.4219 71.3828 13.2031C71.1536 12.9844 71.0391 12.7031 71.0391 12.3594Z" fill="white" fill-opacity="0.7"/>
<path d="M77.3828 14.5469L77.4531 15.5234C78.0573 14.7682 78.8672 14.3906 79.8828 14.3906C80.7786 14.3906 81.4453 14.6536 81.8828 15.1797C82.3203 15.7057 82.5443 16.4922 82.5547 17.5391V23H80.2969V17.5938C80.2969 17.1146 80.1927 16.7682 79.9844 16.5547C79.776 16.3359 79.4297 16.2266 78.9453 16.2266C78.3099 16.2266 77.8333 16.4974 77.5156 17.0391V23H75.2578V14.5469H77.3828Z" fill="white" fill-opacity="0.7"/>
</svg>
