<svg width="102" height="27" viewBox="0 0 102 27" fill="none" xmlns="http://www.w3.org/2000/svg">
<path fill-rule="evenodd" clip-rule="evenodd" d="M23.3334 13.3658C27.0167 13.3658 30 10.3752 30 6.68291C30 2.9906 27.0167 0 23.3334 0C19.65 0 16.6667 2.9906 16.6667 6.68291C16.6667 10.3752 19.65 13.3658 23.3334 13.3658ZM23.3333 3.34145C25.1666 3.34145 26.6666 4.84511 26.6666 6.68291C26.6666 8.52071 25.1666 10.0244 23.3333 10.0244C21.5 10.0244 20 8.52071 20 6.68291C20 4.84511 21.5 3.34145 23.3333 3.34145ZM10 23.3902C10 18.946 18.8833 16.7073 23.3333 16.7073C27.7833 16.7073 36.6666 18.946 36.6666 23.3902V26.7316H10V23.3902ZM13.3334 23.3902C13.7 22.1873 18.85 20.0487 23.3334 20.0487C27.8334 20.0487 33 22.204 33.3334 23.3902H13.3334ZM8.33336 13.3658V18.378H5.00002V13.3658H0V10.0244H5.00002V5.01218H8.33336V10.0244H13.3334V13.3658H8.33336Z" fill="white" fill-opacity="0.7"/>
<path d="M46.2266 18.8359H44.3594V23H42.0156V11.625H46.2422C47.5859 11.625 48.6224 11.9245 49.3516 12.5234C50.0807 13.1224 50.4453 13.9688 50.4453 15.0625C50.4453 15.8385 50.276 16.487 49.9375 17.0078C49.6042 17.5234 49.0964 17.9349 48.4141 18.2422L50.875 22.8906V23H48.3594L46.2266 18.8359ZM44.3594 16.9375H46.25C46.8385 16.9375 47.2943 16.7891 47.6172 16.4922C47.9401 16.1901 48.1016 15.776 48.1016 15.25C48.1016 14.7135 47.9479 14.2917 47.6406 13.9844C47.3385 13.6771 46.8724 13.5234 46.2422 13.5234H44.3594V16.9375Z" fill="white" fill-opacity="0.7"/>
<path d="M55.9766 23.1562C54.737 23.1562 53.7266 22.776 52.9453 22.0156C52.1693 21.2552 51.7812 20.2422 51.7812 18.9766V18.7578C51.7812 17.9089 51.9453 17.151 52.2734 16.4844C52.6016 15.8125 53.0651 15.2969 53.6641 14.9375C54.2682 14.5729 54.9557 14.3906 55.7266 14.3906C56.8828 14.3906 57.7917 14.7552 58.4531 15.4844C59.1198 16.2135 59.4531 17.2474 59.4531 18.5859V19.5078H54.0703C54.1432 20.0599 54.362 20.5026 54.7266 20.8359C55.0964 21.1693 55.5625 21.3359 56.125 21.3359C56.9948 21.3359 57.6745 21.0208 58.1641 20.3906L59.2734 21.6328C58.9349 22.112 58.4766 22.487 57.8984 22.7578C57.3203 23.0234 56.6797 23.1562 55.9766 23.1562ZM55.7188 16.2188C55.2708 16.2188 54.9062 16.3698 54.625 16.6719C54.349 16.974 54.1719 17.4062 54.0938 17.9688H57.2344V17.7891C57.224 17.2891 57.0885 16.9036 56.8281 16.6328C56.5677 16.3568 56.1979 16.2188 55.7188 16.2188Z" fill="white" fill-opacity="0.7"/>
<path d="M60.4141 18.7109C60.4141 17.4141 60.7214 16.3698 61.3359 15.5781C61.9557 14.7865 62.7891 14.3906 63.8359 14.3906C64.763 14.3906 65.4844 14.7083 66 15.3438L66.0938 14.5469H68.1406V22.7188C68.1406 23.4583 67.9714 24.1016 67.6328 24.6484C67.2995 25.1953 66.8281 25.612 66.2188 25.8984C65.6094 26.1849 64.8958 26.3281 64.0781 26.3281C63.4583 26.3281 62.8542 26.2031 62.2656 25.9531C61.6771 25.7083 61.2318 25.3906 60.9297 25L61.9297 23.625C62.4922 24.2552 63.1745 24.5703 63.9766 24.5703C64.5755 24.5703 65.0417 24.4089 65.375 24.0859C65.7083 23.7682 65.875 23.3151 65.875 22.7266V22.2734C65.3542 22.862 64.6693 23.1562 63.8203 23.1562C62.8047 23.1562 61.9818 22.7604 61.3516 21.9688C60.7266 21.1719 60.4141 20.1172 60.4141 18.8047V18.7109ZM62.6719 18.875C62.6719 19.6406 62.8255 20.2422 63.1328 20.6797C63.4401 21.112 63.862 21.3281 64.3984 21.3281C65.0859 21.3281 65.5781 21.0703 65.875 20.5547V17C65.5729 16.4844 65.0859 16.2266 64.4141 16.2266C63.8724 16.2266 63.4453 16.4479 63.1328 16.8906C62.8255 17.3333 62.6719 17.9948 62.6719 18.875Z" fill="white" fill-opacity="0.7"/>
<path d="M72.2656 23H70V14.5469H72.2656V23ZM69.8672 12.3594C69.8672 12.0208 69.9792 11.7422 70.2031 11.5234C70.4323 11.3047 70.7422 11.1953 71.1328 11.1953C71.5182 11.1953 71.8255 11.3047 72.0547 11.5234C72.2839 11.7422 72.3984 12.0208 72.3984 12.3594C72.3984 12.7031 72.2812 12.9844 72.0469 13.2031C71.8177 13.4219 71.513 13.5312 71.1328 13.5312C70.7526 13.5312 70.4453 13.4219 70.2109 13.2031C69.9818 12.9844 69.8672 12.7031 69.8672 12.3594Z" fill="white" fill-opacity="0.7"/>
<path d="M78.7109 20.6641C78.7109 20.388 78.5729 20.1719 78.2969 20.0156C78.026 19.8542 77.5885 19.7109 76.9844 19.5859C74.974 19.1641 73.9688 18.3099 73.9688 17.0234C73.9688 16.2734 74.2786 15.6484 74.8984 15.1484C75.5234 14.6432 76.3385 14.3906 77.3438 14.3906C78.4167 14.3906 79.2734 14.6432 79.9141 15.1484C80.5599 15.6536 80.8828 16.3099 80.8828 17.1172H78.625C78.625 16.7943 78.5208 16.5286 78.3125 16.3203C78.1042 16.1068 77.7786 16 77.3359 16C76.9557 16 76.6615 16.0859 76.4531 16.2578C76.2448 16.4297 76.1406 16.6484 76.1406 16.9141C76.1406 17.1641 76.2578 17.3672 76.4922 17.5234C76.7318 17.6745 77.1328 17.8073 77.6953 17.9219C78.2578 18.0312 78.7318 18.1562 79.1172 18.2969C80.3099 18.7344 80.9062 19.4922 80.9062 20.5703C80.9062 21.3411 80.5755 21.9661 79.9141 22.4453C79.2526 22.9193 78.3984 23.1562 77.3516 23.1562C76.6432 23.1562 76.013 23.0312 75.4609 22.7812C74.9141 22.526 74.4844 22.1797 74.1719 21.7422C73.8594 21.2995 73.7031 20.8229 73.7031 20.3125H75.8438C75.8646 20.7135 76.013 21.0208 76.2891 21.2344C76.5651 21.4479 76.9349 21.5547 77.3984 21.5547C77.8307 21.5547 78.1562 21.474 78.375 21.3125C78.599 21.1458 78.7109 20.9297 78.7109 20.6641Z" fill="white" fill-opacity="0.7"/>
<path d="M85.0703 12.4688V14.5469H86.5156V16.2031H85.0703V20.4219C85.0703 20.7344 85.1302 20.9583 85.25 21.0938C85.3698 21.2292 85.599 21.2969 85.9375 21.2969C86.1875 21.2969 86.4089 21.2786 86.6016 21.2422V22.9531C86.1589 23.0885 85.7031 23.1562 85.2344 23.1562C83.651 23.1562 82.8438 22.3568 82.8125 20.7578V16.2031H81.5781V14.5469H82.8125V12.4688H85.0703Z" fill="white" fill-opacity="0.7"/>
<path d="M91.6641 23.1562C90.4245 23.1562 89.4141 22.776 88.6328 22.0156C87.8568 21.2552 87.4688 20.2422 87.4688 18.9766V18.7578C87.4688 17.9089 87.6328 17.151 87.9609 16.4844C88.2891 15.8125 88.7526 15.2969 89.3516 14.9375C89.9557 14.5729 90.6432 14.3906 91.4141 14.3906C92.5703 14.3906 93.4792 14.7552 94.1406 15.4844C94.8073 16.2135 95.1406 17.2474 95.1406 18.5859V19.5078H89.7578C89.8307 20.0599 90.0495 20.5026 90.4141 20.8359C90.7839 21.1693 91.25 21.3359 91.8125 21.3359C92.6823 21.3359 93.362 21.0208 93.8516 20.3906L94.9609 21.6328C94.6224 22.112 94.1641 22.487 93.5859 22.7578C93.0078 23.0234 92.3672 23.1562 91.6641 23.1562ZM91.4062 16.2188C90.9583 16.2188 90.5938 16.3698 90.3125 16.6719C90.0365 16.974 89.8594 17.4062 89.7812 17.9688H92.9219V17.7891C92.9115 17.2891 92.776 16.9036 92.5156 16.6328C92.2552 16.3568 91.8854 16.2188 91.4062 16.2188Z" fill="white" fill-opacity="0.7"/>
<path d="M101.18 16.6641C100.872 16.6224 100.602 16.6016 100.367 16.6016C99.513 16.6016 98.9531 16.8906 98.6875 17.4688V23H96.4297V14.5469H98.5625L98.625 15.5547C99.0781 14.7786 99.7057 14.3906 100.508 14.3906C100.758 14.3906 100.992 14.4245 101.211 14.4922L101.18 16.6641Z" fill="white" fill-opacity="0.7"/>
</svg>
